PathFileType	4	(X/Y/Z)	/Users/niels/Desktop/University/Third Semester/Perception and Action/Exam/Gymnastics Motion Tracking/Code for Gym Tracking/Analyzed Data/Webcam_Backflip/id6_4_pure_Sports2D/id6_4_pure_Sports2D_px_person00.trc
DataRate	CameraRate	NumFrames	NumMarkers	Units	OrigDataRate	OrigDataStartFrame	OrigNumFrames
29.8125	29.8125	12	22	m	29.8125	100	160
Frame#	Time	Hip			RHip			RKnee			RAnkle			RBigToe			RSmallToe			RHeel			LHip			LKnee			LAnkle			LBigToe			LSmallToe			LHeel			Neck			Head			Nose			RShoulder			RElbow			RWrist			LShoulder			LElbow			LWrist		
		X1	Y1	Z1	X2	Y2	Z2	X3	Y3	Z3	X4	Y4	Z4	X5	Y5	Z5	X6	Y6	Z6	X7	Y7	Z7	X8	Y8	Z8	X9	Y9	Z9	X10	Y10	Z10	X11	Y11	Z11	X12	Y12	Z12	X13	Y13	Z13	X14	Y14	Z14	X15	Y15	Z15	X16	Y16	Z16	X17	Y17	Z17	X18	Y18	Z18	X19	Y19	Z19	X20	Y20	Z20	X21	Y21	Z21	X22	Y22	Z22
100	3.354297693920335	0.9336390422027946	-0.5966268484516287	0.0	0.9250184301794395	-0.5935148904682244	0.0	0.9335524775213335	-0.6965276183591596	0.0	0.917161383934282	-0.7929858937585496	0.0	0.9433133831185162	-0.8092868575765843	0.0	0.932523720592744	-0.810550229845555	0.0	0.910461340676606	-0.8049340045031967	0.0	0.9449623990473298	-0.5918804822080648	0.0	0.9391249054970747	-0.6966051777731003	0.0	0.9209139661007953	-0.7910660576085978	0.0	0.9544863462693992	-0.8081745937527002	0.0	0.9490189016785673	-0.8051786008856556	0.0	0.907063123015471	-0.8015280386386308	0.0	0.9396489922338549	-0.460774132923432	0.0	0.9501142397991912	-0.39847941605973364	0.0	0.965353324364775	-0.4319378915181551	0.0	0.9256721927119383	-0.47978280668962514	0.0	0.9201737410294126	-0.5509281983930079	0.0	0.9376815754107545	-0.6125861807849741	0.0	0.9496351476053634	-0.4776741902080466	0.0	0.941674249976968	-0.5440403596966787	0.0	0.952647791959961	-0.6043667811605927	0.0
101	3.3878406708595383	0.9357124903250009	-0.605562896589124	0.0	0.926121492637617	-0.6022664276614675	0.0	0.9333643372274202	-0.7055972979376849	0.0	0.9168733441914594	-0.8016268031611531	0.0	0.9412032763011996	-0.8172138791193881	0.0	0.9304021772650944	-0.8180888322681051	0.0	0.9105979055217746	-0.8124703238012028	0.0	0.9475857326551492	-0.6007284286598376	0.0	0.9398135831428089	-0.705796334566966	0.0	0.9207997436827232	-0.7999962592777282	0.0	0.9537084762954575	-0.8161750446720145	0.0	0.94821229878921	-0.8130871055850704	0.0	0.9068724659638712	-0.8096217854431434	0.0	0.9409390466663136	-0.4697718257896817	0.0	0.9506940068564411	-0.4079777888983794	0.0	0.965357944982649	-0.44132310094482524	0.0	0.9257251098303618	-0.48895185663499713	0.0	0.9188361448394365	-0.5602180583368421	0.0	0.9343060091964829	-0.6229282512646215	0.0	0.9527506185016578	-0.48681544698838203	0.0	0.9438529643491229	-0.5535591991299678	0.0	0.9539315936422061	-0.6145884498576095	0.0
102	3.421383647798742	0.9378931382319352	-0.6116406701429596	0.0	0.9272161364365477	-0.6081780794859662	0.0	0.933113079151838	-0.7117280041006097	0.0	0.9166591677312396	-0.807137862181114	0.0	0.940148622787166	-0.8225824764309848	0.0	0.9291412876197043	-0.8230698694056603	0.0	0.9107284497329716	-0.8172790986678651	0.0	0.9503103261956897	-0.6068254824821817	0.0	0.9406575745674028	-0.7120560697161675	0.0	0.92092132569526	-0.8057249741399781	0.0	0.9536842160720216	-0.8214261340724235	0.0	0.9483920796517411	-0.8181773407796056	0.0	0.9070370862635738	-0.8148905540603232	0.0	0.9421374718955762	-0.4760033384416634	0.0	0.9511844979704651	-0.4144827192631537	0.0	0.9648180288892784	-0.4478390030244166	0.0	0.9252386288602482	-0.4951095551551552	0.0	0.9171984923770259	-0.5662155008134155	0.0	0.9306839488099793	-0.6297753489137914	0.0	0.9558156332116688	-0.493360114506324	0.0	0.9466737733196899	-0.5601800532875643	0.0	0.9560141958339916	-0.6217092906042974	0.0
103	3.454926624737945	0.9400729533095107	-0.6141120498477042	0.0	0.9282526554672809	-0.6104756065832593	0.0	0.9328268135985355	-0.7139815168284674	0.0	0.9165672171070157	-0.8087627427659158	0.0	0.9403075630269105	-0.8247609679273631	0.0	0.9289627006198744	-0.8249330179037497	0.0	0.9107972993990016	-0.818838272730235	0.0	0.9531116292287832	-0.6093544276934517	0.0	0.9416453855043097	-0.7145078791947848	0.0	0.9213260959698899	-0.8074499272732711	0.0	0.9544340300201207	-0.8233692345597093	0.0	0.9495255154333403	-0.8198857154703443	0.0	0.9075849975389563	-0.816738057213675	0.0	0.9432723472202529	-0.47878399050172965	0.0	0.9516327088161545	-0.4171635962998316	0.0	0.9638105001394284	-0.4506486239004375	0.0	0.9242805476354288	-0.49746757375547446	0.0	0.9153238474965294	-0.56813711193743	0.0	0.9269865638920508	-0.6322592331385021	0.0	0.958823630211526	-0.49657919196850064	0.0	0.9502545342894737	-0.5630990981061574	0.0	0.9590012546881539	-0.6247982086540179	0.0
104	3.4884696016771484	0.9421230323089108	-0.6126876268563841	0.0	0.9292103938608895	-0.608849986206204	0.0	0.9325899834035736	-0.7120564373614278	0.0	0.916611453646823	-0.8064047289794258	0.0	0.9416220202171751	-0.8235807133897323	0.0	0.929898089912578	-0.8235913815555735	0.0	0.9107817908360167	-0.8170987522657847	0.0	0.9558330545664225	-0.6079525703171434	0.0	0.942737687638373	-0.712863068840944	0.0	0.921992694046232	-0.8050428209858345	0.0	0.9557712572996173	-0.8219239846124755	0.0	0.9513809826487912	-0.8181461823673352	0.0	0.9084686265857531	-0.8150161939998635	0.0	0.9443164781271943	-0.4778039212976597	0.0	0.9520601911655499	-0.41574417684586934	0.0	0.962513482808698	-0.449459402826737	0.0	0.9230212465005142	-0.49576830628735186	0.0	0.9133262028510909	-0.565800242008952	0.0	0.923364280958807	-0.6302039418376825	0.0	0.9617272226311028	-0.4961241266206363	0.0	0.9545734901358075	-0.5620071180885637	0.0	0.9628819578626789	-0.6235105640198702	0.0
105	3.522012578616352	0.9438889545921573	-0.6076023791602726	0.0	0.9300690373981454	-0.6036028194951586	0.0	0.9325257053846947	-0.7063624654300192	0.0	0.9168084047236712	-0.80053797989878	0.0	0.9438684511693278	-0.8193065686928841	0.0	0.9318486689298021	-0.8193344100299554	0.0	0.9107564130863299	-0.8123589978484489	0.0	0.9581863129207073	-0.6028525808224494	0.0	0.9438717751621777	-0.7074585957058268	0.0	0.9228652962455705	-0.7989626369414505	0.0	0.957413466187413	-0.8173651167538312	0.0	0.9536286568520678	-0.8132822343110873	0.0	0.9096536950650543	-0.8099337333352533	0.0	0.9451778540951716	-0.47319544941288716	0.0	0.952454796164743	-0.4105031679965208	0.0	0.9611455853367996	-0.44455319815827277	0.0	0.9216670842588619	-0.49032238194747707	0.0	0.9113363086981855	-0.5596269213625568	0.0	0.9199500857682936	-0.6240951446776712	0.0	0.9643415578296176	-0.4920533733739149	0.0	0.9593263007710415	-0.557097312798998	0.0	0.9674749135744112	-0.6181095592394391	0.0
106	3.555555555555555	0.9452008255430464	-0.5995326368346378	0.0	0.93076866491101	-0.595530145858415	0.0	0.9327692868136358	-0.6978277477318658	0.0	0.9171793444787713	-0.7920153707776266	0.0	0.9466428616947131	-0.812520253659355	0.0	0.9345115995933633	-0.8127084052176872	0.0	0.9108507836693356	-0.8051635320666476	0.0	0.9598568438576449	-0.5947902134163746	0.0	0.9449880873059426	-0.6990949697537407	0.0	0.9238745331086146	-0.7900720610288737	0.0	0.9590694014873401	-0.8102345747431405	0.0	0.9558801325191325	-0.8059044783684473	0.0	0.9110994660438925	-0.8020291279853401	0.0	0.9457386637855735	-0.46553758701371434	0.0	0.9527753867542861	-0.4021896730148127	0.0	0.9599607274623246	-0.43668290685764394	0.0	0.9203947247202058	-0.48192710597236754	0.0	0.9094748438429723	-0.5505098595759221	0.0	0.9168400720386908	-0.614903323145831	0.0	0.9664005168493873	-0.4848574892489832	0.0	0.9639959251307278	-0.5490315315503065	0.0	0.9724873524212883	-0.6093558663171247	0.0
107	3.5890985324947584	0.9459495898861765	-0.5894606954403291	0.0	0.931244321392441	-0.5856651463674327	0.0	0.9334390021124467	-0.6875862601251939	0.0	0.9177173278045183	-0.781925941900562	0.0	0.949418955936033	-0.8040558457599011	0.0	0.937350429867811	-0.804480335745398	0.0	0.91114481756036	-0.7962911635996369	0.0	0.9606832017755258	-0.5847969294727827	0.0	0.9460494938051596	-0.6888169125701086	0.0	0.9249373534697297	-0.779513786627012	0.0	0.9604814758495407	-0.8013389141063536	0.0	0.9577531527019287	-0.7968589372396548	0.0	0.9126827296417079	-0.7921992592487308	0.0	0.9459310733227781	-0.45577424102885555	0.0	0.9529921884771875	-0.3918822162009449	0.0	0.9592047477476471	-0.4268994052440563	0.0	0.9193458707668093	-0.47169543122385676	0.0	0.9078529062268916	-0.5396301095333452	0.0	0.9140661728859253	-0.6038987077420973	0.0	0.9677284616618812	-0.4754369622095547	0.0	0.9680884606688291	-0.5388806897244939	0.0	0.9776512407977862	-0.5984028709186046	0.0
108	3.622641509433962	0.9461601146707783	-0.5785500645693221	0.0	0.9315051496629112	-0.5751286434018047	0.0	0.9345807624911001	-0.6767423471539846	0.0	0.9183640264490822	-0.7714332386818837	0.0	0.9517398785978571	-0.7949106686177481	0.0	0.9398146485302014	-0.7955553938526831	0.0	0.9116175125877162	-0.7867002112534174	0.0	0.960756526067216	-0.5740467834871689	0.0	0.9470118987642164	-0.6777446820589993	0.0	0.9259261906565388	-0.7685477129140785	0.0	0.9614945833117796	-0.7916606073530541	0.0	0.9589993835574538	-0.7871272285141001	0.0	0.9142010681321753	-0.7816087183833745	0.0	0.9457960956946868	-0.4450607542228716	0.0	0.9531549892549045	-0.38079210895384547	0.0	0.9590332810586701	-0.41637287863939676	0.0	0.9186120206874698	-0.46084528057327007	0.0	0.9065571102749582	-0.5282637782538446	0.0	0.9115917305274122	-0.592451704493773	0.0	0.9683267551573109	-0.4649783484459045	0.0	0.9712882194348048	-0.5279400568610424	0.0	0.9827564924377421	-0.5866049113626719	0.0
109	3.656184486373165	0.9459714692271214	-0.568025478559494	0.0	0.9316373190583709	-0.5650766187336499	0.0	0.9360782044623016	-0.6663437577760654	0.0	0.9190123582922002	-0.7616053213584997	0.0	0.9533573393035938	-0.7860857583387426	0.0	0.9415835908922165	-0.7868435460186947	0.0	0.9121693095318433	-0.7774086955992777	0.0	0.9603491706217698	-0.5637471533200832	0.0	0.9477717105675186	-0.6670227776964786	0.0	0.9266647781177755	-0.7583499804637971	0.0	0.9620810291680644	-0.7822154890764301	0.0	0.9595709018499172	-0.7777217507078654	0.0	0.9154341123647861	-0.7714966329660402	0.0	0.945488231117709	-0.4345916338177322	0.0	0.9533839848745752	-0.37009819172515673	0.0	0.9594819432659503	-0.4062571276341451	0.0	0.9182117551961609	-0.45053095700433676	0.0	0.9056006864985724	-0.5176200017658369	0.0	0.9093211087905311	-0.5818220685040679	0.0	0.9683462651907637	-0.4547497083283552	0.0	0.9734846735710636	-0.5174792017578654	0.0	0.9875770882360143	-0.5752637774156122	0.0
110	3.6897274633123684	0.9455459490919779	-0.5590599084964198	0.0	0.9317080754895822	-0.5566131046336051	0.0	0.9376161327812403	-0.657421904395559	0.0	0.9195395094117439	-0.7533448100080805	0.0	0.954284128796844	-0.7784419664817339	0.0	0.9426620981497941	-0.779174802096325	0.0	0.9126779232925001	-0.7693749653754492	0.0	0.9597472037903703	-0.5550241273091796	0.0	0.9481731820507716	-0.6577885359911738	0.0	0.9270041239173612	-0.749894630163561	0.0	0.9623029190690715	-0.7739538656631779	0.0	0.9595847096837065	-0.7695916399078916	0.0	0.9161917407180534	-0.762970606233732	0.0	0.9452143446097029	-0.4254758247603302	0.0	0.9537826776705546	-0.36086627655627224	0.0	0.9604817389732151	-0.39760879381611175	0.0	0.9181182976913013	-0.44176363433054666	0.0	0.9049193688051664	-0.5087412906078388	0.0	0.9071403230273443	-0.5730336926620763	0.0	0.9680249191245666	-0.4458864884636785	0.0	0.9747532647435986	-0.5085758372034695	0.0	0.9918507077457326	-0.5654810562173694	0.0
111	3.723270440251572	0.9449985663023512	-0.5526396197631314	0.0	0.9317005289451691	-0.5506485888954668	0.0	0.9387564390784809	-0.6509039172619937	0.0	0.9198721376285098	-0.7473988600280232	0.0	0.9547861612606621	-0.7726470561435496	0.0	0.9433445365326157	-0.7732747757723343	0.0	0.913070433460691	-0.7634320132825528	0.0	0.9591242906223183	-0.5488057497747746	0.0	0.9480992419842164	-0.6510284160555321	0.0	0.926929881348446	-0.7439281863335593	0.0	0.9623020050998401	-0.7676840499425021	0.0	0.9592766057553408	-0.7635181331908636	0.0	0.9163964137490468	-0.7568700613011882	0.0	0.9451349304829773	-0.4186520956682363	0.0	0.9544005172137343	-0.35400170568585126	0.0	0.9618962022923738	-0.3913220152582409	0.0	0.918290934820347	-0.4353768790809685	0.0	0.9044417300296972	-0.5024305297285421	0.0	0.9050064561264518	-0.5668367623818095	0.0	0.9676064701231826	-0.4392629457032482	0.0	0.9752990459877379	-0.5020514847123828	0.0	0.9953460462065743	-0.5581098666480705	0.0
